<svg width="24" height="24" viewBox="0 0 24 24" fill="none" xmlns="http://www.w3.org/2000/svg">
<path d="M2 5C2 3.34315 3.34315 2 5 2H19C20.6569 2 22 3.34315 22 5V19C22 20.6569 20.6569 22 19 22H5C3.34315 22 2 20.6569 2 19V5Z" fill="url(#paint0_linear_8_4237)"/>
<path d="M2 5C2 3.34315 3.34315 2 5 2H19C20.6569 2 22 3.34315 22 5V19C22 20.6569 20.6569 22 19 22H5C3.34315 22 2 20.6569 2 19V5Z" fill="url(#paint1_radial_8_4237)" fill-opacity="0.2"/>
<path fill-rule="evenodd" clip-rule="evenodd" d="M19 3H5C3.89543 3 3 3.89543 3 5V19C3 20.1046 3.89543 21 5 21H19C20.1046 21 21 20.1046 21 19V5C21 3.89543 20.1046 3 19 3ZM5 2C3.34315 2 2 3.34315 2 5V19C2 20.6569 3.34315 22 5 22H19C20.6569 22 22 20.6569 22 19V5C22 3.34315 20.6569 2 19 2H5Z" fill="url(#paint2_linear_8_4237)"/>
<path d="M15.6504 11.8546H8.43027V15.3497C8.43027 16.2577 10.0459 17 12.0772 17C14.1085 17 15.7242 16.2794 15.7242 15.3497L15.6504 11.8546Z" fill="#7751B8"/>
<path d="M11.5878 7.06947L6.22465 10.0169C6.12176 10.0857 6.04713 10.1941 6.01599 10.3199C5.98485 10.4458 5.99953 10.5797 6.05705 10.6943C6.09218 10.7786 6.15073 10.8491 6.22465 10.8961L11.5878 13.404C11.6652 13.4395 11.7484 13.4577 11.8325 13.4577C11.9166 13.4577 11.9998 13.4395 12.0772 13.404L17.7622 10.8817C17.8673 10.8152 17.9451 10.7083 17.9799 10.5827C18.0147 10.457 18.004 10.3218 17.9499 10.2043C17.9115 10.1117 17.8454 10.0356 17.7622 9.9881L12.0906 7.05506C12.0112 7.01647 11.9248 6.99772 11.8377 7.00022C11.7506 7.00272 11.6652 7.02639 11.5878 7.06947Z" fill="white"/>
<path d="M11.6136 7.41862L6.58561 10.0267C6.48915 10.0876 6.41919 10.1835 6.38999 10.2949C6.3608 10.4062 6.37456 10.5247 6.42849 10.6262C6.46142 10.7007 6.51631 10.7631 6.58561 10.8047L11.6136 13.0238C11.6861 13.0552 11.7641 13.0714 11.843 13.0714C11.9218 13.0714 11.9999 13.0552 12.0724 13.0238L17.402 10.792C17.5006 10.7331 17.5735 10.6386 17.6062 10.5274C17.6388 10.4161 17.6288 10.2965 17.578 10.1925C17.542 10.1106 17.4801 10.0433 17.402 10.0012L12.0849 7.40587C12.0105 7.37172 11.9295 7.35513 11.8478 7.35734C11.7662 7.35955 11.6861 7.3805 11.6136 7.41862Z" fill="#7751B8"/>
<path d="M16.5823 12.8635C16.5581 12.7276 16.5054 12.5994 16.4281 12.4887C16.0466 11.7662 15.4522 11.2008 14.7387 10.8817L12.4057 9.83676L11.6616 10.4061L14.0079 11.4798C14.825 11.8389 15.4793 12.5267 15.8314 13.3968C15.9345 13.7918 15.9974 14.1978 16.0191 14.6074M16.1264 14.6074L16.408 14.0093L16.7633 14.4994H16.8303C16.8649 13.9402 16.7777 13.3801 16.5756 12.8635L16.1264 14.6074Z" fill="#B28AF7"/>
<path d="M11.9566 10.6583C12.4527 10.6583 12.8549 10.4389 12.8549 10.1683C12.8549 9.89761 12.4527 9.67822 11.9566 9.67822C11.4604 9.67822 11.0582 9.89761 11.0582 10.1683C11.0582 10.4389 11.4604 10.6583 11.9566 10.6583Z" fill="white"/>
<defs>
<linearGradient id="paint0_linear_8_4237" x1="7.55556" y1="2" x2="10.0855" y2="22.2393" gradientUnits="userSpaceOnUse">
<stop stop-color="white"/>
<stop offset="1" stop-color="#EBEBEB"/>
</linearGradient>
<radialGradient id="paint1_radial_8_4237" cx="0" cy="0" r="1" gradientUnits="userSpaceOnUse" gradientTransform="translate(8.38889 7.20833) rotate(56.3099) scale(19.0293 16.4677)">
<stop offset="0.177083" stop-color="white"/>
<stop offset="1" stop-color="#B8B8B8"/>
</radialGradient>
<linearGradient id="paint2_linear_8_4237" x1="8.45833" y1="2" x2="11.1512" y2="22.1965" gradientUnits="userSpaceOnUse">
<stop stop-color="#BBBBBB"/>
<stop offset="1" stop-color="#888888"/>
</linearGradient>
</defs>
</svg>
