<svg width="24" height="24" viewBox="0 0 24 24" fill="none" xmlns="http://www.w3.org/2000/svg">
<path d="M2 5C2 3.34315 3.34315 2 5 2H19C20.6569 2 22 3.34315 22 5V19C22 20.6569 20.6569 22 19 22H5C3.34315 22 2 20.6569 2 19V5Z" fill="url(#paint0_linear_8_4237)"/>
<path d="M2 5C2 3.34315 3.34315 2 5 2H19C20.6569 2 22 3.34315 22 5V19C22 20.6569 20.6569 22 19 22H5C3.34315 22 2 20.6569 2 19V5Z" fill="url(#paint1_radial_8_4237)" fill-opacity="0.2"/>
<path fill-rule="evenodd" clip-rule="evenodd" d="M19 3H5C3.89543 3 3 3.89543 3 5V19C3 20.1046 3.89543 21 5 21H19C20.1046 21 21 20.1046 21 19V5C21 3.89543 20.1046 3 19 3ZM5 2C3.34315 2 2 3.34315 2 5V19C2 20.6569 3.34315 22 5 22H19C20.6569 22 22 20.6569 22 19V5C22 3.34315 20.6569 2 19 2H5Z" fill="url(#paint2_linear_8_4237)"/>
<path d="M16.4546 11.8255H8.63278V16.0197C8.63278 17.1093 10.3831 18 12.5836 18C14.7842 18 16.5345 17.1352 16.5345 16.0197L16.4546 11.8255Z" fill="#7751B8"/>
<path d="M12.0535 6.08337L6.24337 9.62031C6.1319 9.70283 6.05106 9.83287 6.01732 9.98392C5.98359 10.135 5.9995 10.2956 6.06181 10.4332C6.09986 10.5343 6.16329 10.6189 6.24337 10.6753L12.0535 13.6848C12.1373 13.7273 12.2274 13.7493 12.3186 13.7493C12.4097 13.7493 12.4998 13.7273 12.5836 13.6848L18.7423 10.658C18.8562 10.5782 18.9405 10.45 18.9782 10.2992C19.016 10.1484 19.0043 9.98617 18.9457 9.84515C18.9041 9.73407 18.8325 9.64275 18.7423 9.58572L12.5982 6.06607C12.5122 6.01977 12.4185 5.99727 12.3241 6.00026C12.2298 6.00326 12.1373 6.03167 12.0535 6.08337Z" fill="white"/>
<path d="M12.0814 6.50234L6.63441 9.63209C6.52991 9.70511 6.45412 9.82018 6.42249 9.95384C6.39086 10.0875 6.40578 10.2297 6.46419 10.3514C6.49987 10.4409 6.55934 10.5157 6.63441 10.5657L12.0814 13.2286C12.1599 13.2663 12.2445 13.2857 12.3299 13.2857C12.4153 13.2857 12.4998 13.2663 12.5784 13.2286L18.3522 10.5504C18.459 10.4797 18.538 10.3663 18.5733 10.2328C18.6087 10.0994 18.5978 9.95583 18.5428 9.83105C18.5039 9.73276 18.4368 9.65194 18.3522 9.60148L12.592 6.48704C12.5114 6.44607 12.4236 6.42616 12.3351 6.42881C12.2467 6.43146 12.1599 6.4566 12.0814 6.50234Z" fill="#7751B8"/>
<path d="M17.4641 13.0362C17.4379 12.8731 17.3808 12.7193 17.2971 12.5865C16.8838 11.7195 16.2399 11.041 15.4669 10.658L12.9395 9.40411L12.1334 10.0873L14.6753 11.3758C15.5604 11.8066 16.2693 12.632 16.6507 13.6761C16.7624 14.1502 16.8306 14.6373 16.8541 15.1289M16.9703 15.1289L17.2753 14.4112L17.6602 14.9992H17.7328C17.7703 14.3282 17.6758 13.6561 17.4569 13.0362L16.9703 15.1289Z" fill="#B28AF7"/>
<path d="M12.4529 10.39C12.9904 10.39 13.4261 10.1267 13.4261 9.80191C13.4261 9.47714 12.9904 9.21386 12.4529 9.21386C11.9154 9.21386 11.4797 9.47714 11.4797 9.80191C11.4797 10.1267 11.9154 10.39 12.4529 10.39Z" fill="white"/>
<defs>
<linearGradient id="paint0_linear_8_4237" x1="7.55556" y1="2" x2="10.0855" y2="22.2393" gradientUnits="userSpaceOnUse">
<stop stop-color="white"/>
<stop offset="1" stop-color="#EBEBEB"/>
</linearGradient>
<radialGradient id="paint1_radial_8_4237" cx="0" cy="0" r="1" gradientUnits="userSpaceOnUse" gradientTransform="translate(8.38889 7.20833) rotate(56.3099) scale(19.0293 16.4677)">
<stop offset="0.177083" stop-color="white"/>
<stop offset="1" stop-color="#B8B8B8"/>
</radialGradient>
<linearGradient id="paint2_linear_8_4237" x1="8.45833" y1="2" x2="11.1512" y2="22.1965" gradientUnits="userSpaceOnUse">
<stop stop-color="#BBBBBB"/>
<stop offset="1" stop-color="#888888"/>
</linearGradient>
</defs>
</svg>
