<svg width="32" height="32" viewBox="0 0 32 32" fill="none" xmlns="http://www.w3.org/2000/svg">
<path d="M0 4.30769C0 1.92862 1.92862 0 4.30769 0H27.6923C30.0714 0 32 1.92862 32 4.30769V27.6923C32 30.0714 30.0714 32 27.6923 32H4.30769C1.92862 32 0 30.0714 0 27.6923V4.30769Z" fill="url(#paint0_linear_5_75)"/>
<path fill-rule="evenodd" clip-rule="evenodd" d="M27.6923 0.615385H4.30769C2.26849 0.615385 0.615385 2.26849 0.615385 4.30769V27.6923C0.615385 29.7315 2.26849 31.3846 4.30769 31.3846H27.6923C29.7315 31.3846 31.3846 29.7315 31.3846 27.6923V4.30769C31.3846 2.26849 29.7315 0.615385 27.6923 0.615385ZM4.30769 0C1.92862 0 0 1.92862 0 4.30769V27.6923C0 30.0714 1.92862 32 4.30769 32H27.6923C30.0714 32 32 30.0714 32 27.6923V4.30769C32 1.92862 30.0714 0 27.6923 0H4.30769Z" fill="url(#paint1_linear_5_75)"/>
<path d="M21.9904 15.7494H10.142V21.7718C10.142 23.3364 12.7933 24.6154 16.1267 24.6154C19.4601 24.6154 22.1115 23.3737 22.1115 21.7718L21.9904 15.7494Z" fill="#7751B8"/>
<path d="M15.3236 7.50433L6.5225 12.583C6.35364 12.7015 6.23119 12.8882 6.18008 13.1051C6.12898 13.322 6.15308 13.5527 6.24746 13.7502C6.30511 13.8954 6.40119 14.0169 6.5225 14.0979L15.3236 18.4191C15.4505 18.4803 15.5871 18.5118 15.7251 18.5118C15.8632 18.5118 15.9997 18.4803 16.1267 18.4191L25.4558 14.0731C25.6284 13.9585 25.756 13.7744 25.8132 13.5578C25.8703 13.3413 25.8527 13.1083 25.7639 12.9059C25.7009 12.7464 25.5925 12.6152 25.4558 12.5333L16.1487 7.47949C16.0184 7.413 15.8765 7.3807 15.7336 7.385C15.5907 7.3893 15.4505 7.4301 15.3236 7.50433Z" fill="white"/>
<path d="M15.3659 8.10593L7.11484 12.5999C6.95654 12.7048 6.84174 12.87 6.79383 13.0619C6.74592 13.2538 6.76851 13.458 6.857 13.6328C6.91104 13.7612 7.00112 13.8687 7.11484 13.9404L15.3659 17.7642C15.4849 17.8183 15.6129 17.8462 15.7423 17.8462C15.8717 17.8462 15.9998 17.8183 16.1188 17.7642L24.8649 13.9184C25.0266 13.817 25.1463 13.6541 25.1999 13.4625C25.2534 13.2709 25.2369 13.0648 25.1536 12.8856C25.0946 12.7445 24.993 12.6284 24.8649 12.556L16.1394 8.08395C16.0173 8.02512 15.8842 7.99653 15.7503 8.00034C15.6163 8.00414 15.4849 8.04024 15.3659 8.10593Z" fill="#7751B8"/>
<path d="M23.5196 17.4878C23.48 17.2537 23.3934 17.0328 23.2666 16.8421C22.6406 15.5972 21.6652 14.623 20.4942 14.0731L16.6658 12.2726L15.4446 13.2535L19.2951 15.1037C20.6359 15.7223 21.7096 16.9075 22.2875 18.4067C22.4566 19.0875 22.5599 19.7869 22.5955 20.4928M22.7715 20.4928L23.2336 19.4622L23.8167 20.3066H23.9267C23.9834 19.3431 23.8403 18.3779 23.5086 17.4878L22.7715 20.4928Z" fill="#B28AF7"/>
<path d="M15.9287 13.6881C16.7428 13.6881 17.4029 13.3101 17.4029 12.8438C17.4029 12.3774 16.7428 11.9994 15.9287 11.9994C15.1145 11.9994 14.4545 12.3774 14.4545 12.8438C14.4545 13.3101 15.1145 13.6881 15.9287 13.6881Z" fill="white"/>
<defs>
<linearGradient id="paint0_linear_5_75" x1="8.88886" y1="6.70328e-08" x2="12.9367" y2="32.3829" gradientUnits="userSpaceOnUse">
<stop stop-color="white"/>
<stop offset="1" stop-color="#EBEBEB"/>
</linearGradient>
<linearGradient id="paint1_linear_5_75" x1="10.3334" y1="-1.9375e-08" x2="14.6419" y2="32.3144" gradientUnits="userSpaceOnUse">
<stop stop-color="#BBBBBB"/>
<stop offset="1" stop-color="#888888"/>
</linearGradient>
</defs>
</svg>
